<?xml version="1.0" encoding="UTF-8"?>
<svg version="1.1" xmlns="http://www.w3.org/2000/svg" width="256" height="256">
<path d="M0 0 C2.97 0 5.94 0 9 0 C9.67036072 3.10341102 10.33643337 6.20763587 11 9.3125 C11.19078125 10.19357422 11.3815625 11.07464844 11.578125 11.98242188 C11.75859375 12.82998047 11.9390625 13.67753906 12.125 14.55078125 C12.29257813 15.33106689 12.46015625 16.11135254 12.6328125 16.9152832 C13 19 13 19 13 22 C13.825 22.08636719 14.65 22.17273438 15.5 22.26171875 C34.21554447 24.53849816 51.81914701 31.04659541 66.88671875 42.5546875 C70.1879206 44.84936154 70.1879206 44.84936154 74 46 C76.78986196 44.81772886 79.12656145 43.09693876 81.5625 41.3125 C82.22185547 40.85166016 82.88121094 40.39082031 83.56054688 39.91601562 C86.2042706 38.05876649 88.79296283 36.16361495 91.328125 34.16015625 C93 33 93 33 95.1875 33.125 C95.785625 33.41375 96.38375 33.7025 97 34 C98 37 98 37 97.13549805 38.82177734 C96.68215088 39.4864502 96.22880371 40.15112305 95.76171875 40.8359375 C95.27123047 41.57070313 94.78074219 42.30546875 94.27539062 43.0625 C93.75138672 43.825625 93.22738281 44.58875 92.6875 45.375 C87.84364196 51.76914196 87.84364196 51.76914196 85 59 C86.36118615 61.34944459 87.66700259 63.17951072 89.375 65.25 C100.40691869 79.70448918 108.67025357 98.54708151 108 117 C108.73863281 117.12117188 109.47726563 117.24234375 110.23828125 117.3671875 C115.5579902 118.2459196 120.87598993 119.13542541 126.1875 120.0625 C127.53908203 120.29646484 127.53908203 120.29646484 128.91796875 120.53515625 C131 121 131 121 132 122 C132.07179964 123.51928038 132.08392007 125.04167482 132.0625 126.5625 C132.05347656 127.38878906 132.04445313 128.21507812 132.03515625 129.06640625 C132.01775391 130.02353516 132.01775391 130.02353516 132 131 C131.40985107 131.11069824 130.81970215 131.22139648 130.21166992 131.33544922 C127.53555054 131.84154992 124.86156297 132.3581489 122.1875 132.875 C121.25873047 133.04902344 120.32996094 133.22304687 119.37304688 133.40234375 C118.48037109 133.57636719 117.58769531 133.75039062 116.66796875 133.9296875 C115.43469849 134.16534424 115.43469849 134.16534424 114.17651367 134.40576172 C111.73316798 134.94968988 111.73316798 134.94968988 109 137 C108.14721278 140.05793488 108.14721278 140.05793488 107.625 143.6875 C104.53648138 160.8326054 97.95858277 176.25816319 87.15234375 189.94921875 C85.78981459 191.88776141 85.78981459 191.88776141 86.26708984 193.88012695 C87.08028505 196.23221689 88.14342151 197.93466976 89.57421875 199.96875 C90.07630859 200.70480469 90.57839844 201.44085938 91.09570312 202.19921875 C92.16070864 203.73857642 93.23371002 205.27243145 94.31445312 206.80078125 C95.06178711 207.90486328 95.06178711 207.90486328 95.82421875 209.03125 C96.28916748 209.69705078 96.75411621 210.36285156 97.2331543 211.04882812 C98 213 98 213 97.13598633 215.24804688 C96.76111084 215.82619141 96.38623535 216.40433594 96 217 C90.6097801 216.5853677 86.93870373 213.48058685 82.6875 210.4375 C81.94693359 209.91736328 81.20636719 209.39722656 80.44335938 208.86132812 C78.62351816 207.58156882 76.80945816 206.29437782 75 205 C71.811743 206.53176176 68.98145615 208.35114255 66.07885742 210.3762207 C50.28102212 221.32886991 32.43259735 229.05971303 13 230 C12.89042969 230.78761719 12.78085938 231.57523438 12.66796875 232.38671875 C11.50597432 240.36952603 9.92301996 248.16689868 8 256 C5.36 256 2.72 256 0 256 C-0.67635064 252.79363027 -1.33932448 249.58463311 -2 246.375 C-2.28617188 245.01955078 -2.28617188 245.01955078 -2.578125 243.63671875 C-3.52210398 239.01796444 -4.25214768 234.74352828 -4 230 C-5.258125 229.938125 -6.51625 229.87625 -7.8125 229.8125 C-27.01627924 227.80248633 -49.07758916 219.92241084 -63 206 C-66.04046828 206.36677182 -68.05363013 207.53794647 -70.49609375 209.3203125 C-71.13740234 209.77277344 -71.77871094 210.22523438 -72.43945312 210.69140625 C-73.77262452 211.64795347 -75.10077736 212.61153384 -76.42382812 213.58203125 C-81.36548871 217.04168931 -81.36548871 217.04168931 -84.97265625 216.8046875 C-85.64167969 216.53914062 -86.31070313 216.27359375 -87 216 C-86.47872056 210.11860808 -82.78164095 206.05210281 -79.41796875 201.43945312 C-78.96808594 200.79814453 -78.51820312 200.15683594 -78.0546875 199.49609375 C-77.42796143 198.63262329 -77.42796143 198.63262329 -76.78857422 197.75170898 C-75.74450471 195.43245242 -76.11511099 194.3432456 -77 192 C-78.13371711 190.35738244 -79.33015266 188.75747675 -80.5625 187.1875 C-92.24193761 171.4265385 -98.28286169 154.50361573 -100 135 C-100.73863281 134.87882813 -101.47726563 134.75765625 -102.23828125 134.6328125 C-107.5579902 133.7540804 -112.87598993 132.86457459 -118.1875 131.9375 C-119.53908203 131.70353516 -119.53908203 131.70353516 -120.91796875 131.46484375 C-123 131 -123 131 -124 130 C-124.14115161 127.32941149 -124.04247107 124.67567762 -124 122 C-116.03399365 120.10031645 -108.07385038 118.37530517 -100 117 C-99.92523438 116.12601562 -99.85046875 115.25203125 -99.7734375 114.3515625 C-97.50048587 93.0927796 -89.17491913 74.06748327 -75 58 C-76.82801293 52.50539467 -80.24610643 48.15332544 -83.63085938 43.52734375 C-87.04287538 38.63892719 -87.04287538 38.63892719 -86.80078125 35.03125 C-86.53652344 34.3609375 -86.27226563 33.690625 -86 33 C-79.90274137 33.45253091 -75.57628479 37.67614989 -70.8828125 41.2265625 C-66.94663246 44.20667186 -66.94663246 44.20667186 -62.23046875 45.00390625 C-59.94815863 43.97666684 -58.23991463 42.90543921 -56.3125 41.3125 C-42.14360929 30.29809331 -22.23328632 22 -4 22 C-3.94392578 21.00033203 -3.94392578 21.00033203 -3.88671875 19.98046875 C-3.39004411 13.01728507 -2.05018792 6.66633432 0 0 Z M-50 78 C-61.44196452 92.08953883 -69.00031509 109.81524573 -68.28515625 128.25390625 C-65.99594365 150.29933718 -58.16792323 167.5426925 -41.25 182.41796875 C-25.41872081 194.98615183 -6.79241519 199.46567215 13.1328125 197.7265625 C31.62582886 195.36480378 49.66310941 186.1010517 61.31835938 171.32910156 C72.45954344 156.05099722 79.2215955 137.2935922 76.4609375 118.2890625 C72.99411921 97.12030721 63.55635196 79.72342361 46 67 C15.88370257 46.05705754 -25.02565591 51.44960507 -50 78 Z " fill="#8CC53D" transform="translate(124,0)"/>
<path d="M0 0 C0.495 0.495 0.495 0.495 1 1 C0.58371208 6.08976106 -0.67960368 10.02858899 -2.87890625 14.61328125 C-3.16667938 15.22081238 -3.45445251 15.82834351 -3.75094604 16.45428467 C-4.67973572 18.41115112 -5.62103162 20.3617067 -6.5625 22.3125 C-7.5298439 24.34230981 -8.49387 26.37367057 -9.45747375 28.40525818 C-10.09309147 29.74522521 -10.72971232 31.08471688 -11.36735535 32.42372131 C-13.8249682 37.59395597 -16.15955941 42.81063028 -18.4375 48.0625 C-20.73119782 53.28478539 -23.11621638 58.439489 -25.75 63.5 C-26.28109375 64.5209375 -26.8121875 65.541875 -27.359375 66.59375 C-29.07918495 69.11613792 -30.10081661 70.10431733 -33 71 C-35 70 -35 70 -36 67 C-36.10322716 65.12823045 -36.15491848 63.25340401 -36.17578125 61.37890625 C-36.21155273 59.72858398 -36.21155273 59.72858398 -36.24804688 58.04492188 C-36.29093988 55.72739978 -36.32223157 53.4096333 -36.34179688 51.09179688 C-36.36951172 49.99029297 -36.39722656 48.88878906 -36.42578125 47.75390625 C-36.44036377 46.74658447 -36.45494629 45.7392627 -36.4699707 44.70141602 C-37.1540402 41.21489875 -38.1168047 40.05374198 -41 38 C-43.95474046 37.37686668 -43.95474046 37.37686668 -47.2265625 37.42578125 C-48.4228125 37.39806641 -49.6190625 37.37035156 -50.8515625 37.34179688 C-52.09679687 37.33212891 -53.34203125 37.32246094 -54.625 37.3125 C-57.09641827 37.27054691 -59.56778132 37.2251535 -62.0390625 37.17578125 C-63.68189209 37.15898315 -63.68189209 37.15898315 -65.35791016 37.1418457 C-68 37 -68 37 -70 36 C-70 33.8125 -70 33.8125 -69 31 C-61.59485652 25.67814497 -53.11703745 22.13698651 -44.875 18.3125 C-43.35187232 17.60242174 -41.82884239 16.89213377 -40.3059082 16.18164062 C-37.28153309 14.77211401 -34.25543168 13.36638656 -31.22802734 11.96337891 C-27.49572594 10.23278102 -23.7725692 8.48355275 -20.05078125 6.73046875 C-18.09673767 5.81948944 -16.14234216 4.9092644 -14.1875 4 C-13.31270996 3.58532471 -12.43791992 3.17064941 -11.53662109 2.7434082 C-10.73434082 2.3743335 -9.93206055 2.00525879 -9.10546875 1.625 C-8.08682739 1.14933594 -8.08682739 1.14933594 -7.04760742 0.6640625 C-4.59311814 -0.13195644 -2.56480211 -0.18248248 0 0 Z " fill="#8BC53C" transform="translate(163,90)"/>
<path d="M0 0 C2 2 2 2 2.46411133 3.87695312 C3.08870566 6.35142797 4.10898937 7.88571962 5.57421875 9.96875 C6.07630859 10.70480469 6.57839844 11.44085938 7.09570312 12.19921875 C8.16070864 13.73857642 9.23371002 15.27243145 10.31445312 16.80078125 C10.81267578 17.53683594 11.31089844 18.27289063 11.82421875 19.03125 C12.52164185 20.02995117 12.52164185 20.02995117 13.2331543 21.04882812 C14 23 14 23 13.13598633 25.24804688 C12.76111084 25.82619141 12.38623535 26.40433594 12 27 C6.6097801 26.5853677 2.93870373 23.48058685 -1.3125 20.4375 C-2.05306641 19.91736328 -2.79363281 19.39722656 -3.55664062 18.86132812 C-5.37648184 17.58156882 -7.19054184 16.29437782 -9 15 C-12.18893627 16.53208811 -15.01968413 18.35255196 -17.92358398 20.37695312 C-28.01951536 27.38160087 -38.7735836 33.71808135 -51 36 C-51.66 35.34 -52.32 34.68 -53 34 C-52.319375 33.731875 -51.63875 33.46375 -50.9375 33.1875 C-37.21788837 27.64127402 -22.62813718 21.62813718 -12 11 C-6.7402076 11.06830899 -2.78666308 14.62824653 1.3125 17.5625 C2.05306641 18.08263672 2.79363281 18.60277344 3.55664062 19.13867188 C5.37648184 20.41843118 7.19054184 21.70562218 9 23 C5.8270164 17.02231824 2.35316066 11.5616971 -1.7421875 6.1640625 C-2.15726563 5.44992188 -2.57234375 4.73578125 -3 4 C-2.67 3.01 -2.34 2.02 -2 1 C-1.34 0.67 -0.68 0.34 0 0 Z " fill="#85C233" transform="translate(208,190)"/>
<path d="M0 0 C0.495 0.99 0.495 0.99 1 2 C-0.50948081 5.01896163 -2.73296778 5.10442301 -5.875 6.1875 C-22.83123607 12.53217477 -36.03738803 24.31334061 -43.828125 40.703125 C-45.90431834 45.33486718 -47.72748499 49.92088435 -48.97265625 54.8515625 C-49.48119141 56.41003906 -49.48119141 56.41003906 -50 58 C-51.485 58.495 -51.485 58.495 -53 59 C-52.12674503 43.8635806 -42.49170303 27.74506269 -31.46679688 17.58740234 C-22.22460279 9.55858403 -12.09741121 2.74941164 0 0 Z " fill="#86C233" transform="translate(108,54)"/>
<path d="M0 0 C0.66 0 1.32 0 2 0 C0.64737628 4.74130209 -1.33354354 8.32288579 -4.125 12.375 C-4.84945312 13.43460938 -5.57390625 14.49421875 -6.3203125 15.5859375 C-6.87460937 16.38257813 -7.42890625 17.17921875 -8 18 C-7.51120361 17.66154053 -7.02240723 17.32308105 -6.51879883 16.97436523 C-4.29366398 15.44641296 -2.05358903 13.94194325 0.1875 12.4375 C0.95642578 11.90447266 1.72535156 11.37144531 2.51757812 10.82226562 C3.26845703 10.32275391 4.01933594 9.82324219 4.79296875 9.30859375 C5.4789917 8.84251709 6.16501465 8.37644043 6.87182617 7.89624023 C9.64508691 6.72833383 11.16380834 7.12342817 14 8 C16.03515625 9.3828125 16.03515625 9.3828125 18.0625 11.125 C23.99600236 15.95158007 30.70121213 20.56707071 38 23 C37.505 24.485 37.505 24.485 37 26 C29.00410218 22.91067584 20.86574384 18.79882009 14.5 13 C13.2625 12.01 13.2625 12.01 12 11 C8.95592224 11.36128528 6.94923864 12.53585301 4.50390625 14.3203125 C3.86259766 14.77277344 3.22128906 15.22523438 2.56054688 15.69140625 C1.22737548 16.64795347 -0.10077736 17.61153384 -1.42382812 18.58203125 C-6.36548871 22.04168931 -6.36548871 22.04168931 -9.97265625 21.8046875 C-10.64167969 21.53914063 -11.31070313 21.27359375 -12 21 C-11.52040133 15.8443143 -8.8669099 12.38312844 -6 8.25 C-5.5359375 7.56550781 -5.071875 6.88101563 -4.59375 6.17578125 C-1.21350932 1.21350932 -1.21350932 1.21350932 0 0 Z " fill="#86C233" transform="translate(49,195)"/>
<path d="M0 0 C19.69440598 3.6106411 36.07639056 14.87231412 47.8125 31 C56.35086647 43.85825259 56.35086647 43.85825259 55.625 48.2890625 C55.41875 48.85367188 55.2125 49.41828125 55 50 C54.34 50 53.68 50 53 50 C52.731875 49.26136719 52.46375 48.52273437 52.1875 47.76171875 C48.94993155 39.38025044 44.78860865 31.62755679 38.2578125 25.31640625 C37 24 37 24 37 22 C36.4225 21.73703125 35.845 21.4740625 35.25 21.203125 C32.88154056 19.9366571 31.0534706 18.4767821 29 16.75 C21.24167076 10.63236662 12.45893151 6.89485837 3.08203125 3.95703125 C2.39496094 3.64121094 1.70789063 3.32539062 1 3 C0.67 2.01 0.34 1.02 0 0 Z " fill="#86C234" transform="translate(143,53)"/>
<path d="M0 0 C1.26471408 2.92819146 0.98094409 4.05207932 -0.13647461 7.10595703 C-0.7131438 8.32895044 -1.30267469 9.5459308 -1.90234375 10.7578125 C-2.21518814 11.4140712 -2.52803253 12.0703299 -2.85035706 12.74647522 C-3.86887275 14.87788662 -4.9031203 17.00124895 -5.9375 19.125 C-6.98905285 21.31539947 -8.03656071 23.50770161 -9.08377075 25.70018005 C-9.77373894 27.14414821 -10.46503792 28.58748125 -11.15768433 30.03016663 C-13.71708203 35.36898125 -16.1494601 40.75337048 -18.5 46.1875 C-20.77182321 51.36897881 -23.13771765 56.48030649 -25.75 61.5 C-26.28109375 62.5209375 -26.8121875 63.541875 -27.359375 64.59375 C-29.07918495 67.11613792 -30.10081661 68.10431733 -33 69 C-33.66 68.67 -34.32 68.34 -35 68 C-35 67.01 -35 66.02 -35 65 C-34.37958832 64.90091843 -33.75917664 64.80183685 -33.1199646 64.69975281 C-30.60152258 64.12421461 -30.60152258 64.12421461 -29.08056641 60.80395508 C-28.40589509 59.38284004 -27.74731091 57.95402012 -27.1015625 56.51953125 C-26.74411957 55.75509201 -26.38667664 54.99065277 -26.0184021 54.20304871 C-24.87363919 51.74559376 -23.74941388 49.27932146 -22.625 46.8125 C-21.87627788 45.2005777 -21.12629072 43.58924235 -20.375 41.97851562 C-17.03709754 34.79244088 -13.79224529 27.5761422 -10.69921875 20.28125 C-8.7194738 15.6129165 -6.63634831 11.12638306 -4.1875 6.6875 C-3.60355469 5.61886719 -3.01960938 4.55023438 -2.41796875 3.44921875 C-1 1 -1 1 0 0 Z " fill="#83C130" transform="translate(163,92)"/>
<path d="M0 0 C2.10912921 3.16369381 3.01795902 5.89158688 4.1875 9.5 C9.52134212 24.9358762 20.7418144 38.84918537 35 47 C37.36116097 48.09455369 39.73920855 49.10657186 42.1484375 50.08984375 C44.52130819 51.25625487 45.75767476 52.68099288 47 55 C33.36725179 53.24863965 21.52566098 42.67373099 12.90625 32.5 C6.78505805 24.47220729 -2 12.54788456 -2 2 C-1.34 2 -0.68 2 0 2 C0 1.34 0 0.68 0 0 Z " fill="#85C232" transform="translate(57,141)"/>
<path d="M0 0 C1.6875 0.9375 1.6875 0.9375 2.6875 3.9375 C1.82299805 5.75927734 1.82299805 5.75927734 0.44921875 7.7734375 C-0.28651367 8.87558594 -0.28651367 8.87558594 -1.03710938 10 C-1.56111328 10.763125 -2.08511719 11.52625 -2.625 12.3125 C-4.55947216 15.16432562 -6.45853801 18.03269001 -8.3125 20.9375 C-8.86035156 21.78957031 -9.40820312 22.64164063 -9.97265625 23.51953125 C-10.46300012 27.00829968 -8.97916685 28.60207574 -6.93359375 31.35351562 C-6.43988281 31.97935547 -5.94617188 32.60519531 -5.4375 33.25 C-4.95152344 33.89517578 -4.46554688 34.54035156 -3.96484375 35.20507812 C-2.76361603 36.79493834 -1.54012065 38.36792966 -0.3125 39.9375 C-0.9725 40.9275 -1.6325 41.9175 -2.3125 42.9375 C-4.3581534 40.39395325 -6.36919613 37.82504877 -8.375 35.25 C-9.24608398 34.1681543 -9.24608398 34.1681543 -10.13476562 33.06445312 C-10.67939453 32.35869141 -11.22402344 31.65292969 -11.78515625 30.92578125 C-12.29312744 30.28165283 -12.80109863 29.63752441 -13.32446289 28.97387695 C-14.66386785 26.21331931 -14.23820759 24.81990711 -13.3125 21.9375 C-12.31274414 20.04052734 -12.31274414 20.04052734 -11.09765625 18.2734375 C-10.43926758 17.30277344 -10.43926758 17.30277344 -9.76757812 16.3125 C-9.30802734 15.6525 -8.84847656 14.9925 -8.375 14.3125 C-7.91931641 13.64476562 -7.46363281 12.97703125 -6.99414062 12.2890625 C-6.14700097 11.0487409 -5.29654887 9.81067017 -4.44165039 8.57568359 C-3.3832244 7.04010773 -2.34702089 5.48928134 -1.3125 3.9375 C-2.735625 4.9275 -2.735625 4.9275 -4.1875 5.9375 C-7.3125 7.9375 -7.3125 7.9375 -9.3125 7.9375 C-9.1875 6.1875 -9.1875 6.1875 -8.3125 3.9375 C-3.4115099 -0.09220297 -3.4115099 -0.09220297 0 0 Z " fill="#85C132" transform="translate(219.3125,33.0625)"/>
<path d="M0 0 C1.51171875 1.30957031 1.51171875 1.30957031 3 3 C1.9130449 20.66302035 -6.47734106 41.5020281 -18 55 C-18.99 55 -19.98 55 -21 55 C-19.45516938 51.76163849 -17.67423551 48.67610292 -15.87792969 45.57202148 C-7.38892157 30.79634225 -3.29572826 16.67574917 0 0 Z " fill="#84C130" transform="translate(230,134)"/>
<path d="M0 0 C0.99 0 1.98 0 3 0 C1.41486905 14.03055096 -9.61499138 28.14404117 -20.37109375 36.80859375 C-23.17975351 38.97193244 -26.06178272 41.01554959 -29 43 C-29.66 42.67 -30.32 42.34 -31 42 C-27.56201374 38.48045567 -23.98630421 35.26998866 -20.25 32.0625 C-10.41903621 23.2642962 -4.49082351 12.32155598 0 0 Z " fill="#84C233" transform="translate(197,147)"/>
<path d="M0 0 C0 0.66 0 1.32 0 2 C-0.66 2 -1.32 2 -2 2 C-2.23332031 2.51175781 -2.46664062 3.02351563 -2.70703125 3.55078125 C-4.10807689 6.20472571 -5.72840414 8.67233697 -7.37670898 11.17773438 C-13.1592892 20.04385476 -17.31712985 29.1015298 -21 39 C-21.56378838 40.50000515 -22.12759013 42.00000528 -22.69140625 43.5 C-23.12324219 44.655 -23.55507813 45.81 -24 47 C-24.66 47 -25.32 47 -26 47 C-24.44921566 35.63649403 -13.62951706 0 0 0 Z " fill="#84C131" transform="translate(52,58)"/>
<path d="M0 0 C3.78253756 0.56112971 6.27674482 1.57043711 9.42578125 3.72265625 C10.61977539 4.52993164 10.61977539 4.52993164 11.83789062 5.35351562 C13.06282227 6.19946289 13.06282227 6.19946289 14.3125 7.0625 C15.14845703 7.63033203 15.98441406 8.19816406 16.84570312 8.78320312 C18.90219899 10.18162031 20.95327542 11.58733754 23 13 C22.67 13.66 22.34 14.32 22 15 C15.44489755 12.52362796 9.83289859 8.84992403 4 5 C5.72470431 8.5944772 7.80019492 11.86157026 9.9765625 15.1953125 C11 17 11 17 11 19 C10.01 19 9.02 19 8 19 C6.24808955 16.79819417 4.74767025 14.67711817 3.25 12.3125 C2.82589844 11.68666016 2.40179688 11.06082031 1.96484375 10.41601562 C0.055289 7.44594268 -1.04923384 5.62116695 -0.765625 2.04296875 C-0.51296875 1.36878906 -0.2603125 0.69460937 0 0 Z " fill="#86C134" transform="translate(38,33)"/>
<path d="M0 0 C2.92422732 3.51807041 4.74408573 7.45973654 6.6875 11.5625 C10.12385438 18.65565413 14.07691939 24.81996264 19 31 C18.01 31.33 17.02 31.66 16 32 C10.88931666 25.64713668 6.29809888 19.21560516 2.375 12.0625 C2.02050781 11.43657959 1.66601562 10.81065918 1.30078125 10.16577148 C-0.25509647 7.23393408 -1.03944251 5.40135418 -0.7109375 2.05859375 C-0.47632812 1.37925781 -0.24171875 0.69992188 0 0 Z " fill="#83C12F" transform="translate(32,161)"/>
<path d="M0 0 C3.17578125 1.26953125 3.17578125 1.26953125 6.3125 2.8125 C7.36050781 3.31394531 8.40851563 3.81539062 9.48828125 4.33203125 C12 6 12 6 12.65698242 8.10424805 C12.77017822 8.72984619 12.88337402 9.35544434 13 10 C10.06046881 8.71292093 7.12374889 7.41954756 4.1875 6.125 C3.35412109 5.76019531 2.52074219 5.39539062 1.66210938 5.01953125 C0.85966797 4.66503906 0.05722656 4.31054688 -0.76953125 3.9453125 C-1.50792236 3.62062988 -2.24631348 3.29594727 -3.00708008 2.96142578 C-5 2 -5 2 -8 0 C-5.05398364 -1.47300818 -3.18012299 -0.71809229 0 0 Z " fill="#86C234" transform="translate(167,29)"/>
<path d="M0 0 C0 0.66 0 1.32 0 2 C-5.62338249 4.14710968 -11.27789404 6.13236819 -17 8 C-11.57688217 2.52999642 -7.9044803 0 0 0 Z " fill="#86C132" transform="translate(162,91)"/>
<path d="M0 0 C-3.07999946 3.67230705 -5.2482602 4.56802365 -10 5 C-10 4.01 -10 3.02 -10 2 C-3.375 -1.125 -3.375 -1.125 0 0 Z " fill="#85C133" transform="translate(163,191)"/>
<path d="M0 0 C0.66 0.66 1.32 1.32 2 2 C0.66272409 4.67455183 -0.73288323 4.98881385 -3.4375 6.1875 C-4.24058594 6.55230469 -5.04367188 6.91710938 -5.87109375 7.29296875 C-8 8 -8 8 -10 7 C-7.47354714 2.69016865 -4.50653635 1.70057975 0 0 Z " fill="#83BF32" transform="translate(89,29)"/>
<path d="M0 0 C-5.445 3.96 -5.445 3.96 -11 8 C-11.66 7.67 -12.32 7.34 -13 7 C-5.71428571 -2.85714286 -5.71428571 -2.85714286 0 0 Z " fill="#84C132" transform="translate(78,38)"/>
<path d="M0 0 C-0.66 1.32 -1.32 2.64 -2 4 C-2.99 3.67 -3.98 3.34 -5 3 C-5.33 3.33 -5.66 3.66 -6 4 C-7.66617115 4.04063832 -9.33388095 4.042721 -11 4 C-11 3.01 -11 2.02 -11 1 C-9.54182203 0.83197949 -8.0834516 0.66562857 -6.625 0.5 C-5.81289062 0.4071875 -5.00078125 0.314375 -4.1640625 0.21875 C-2 0 -2 0 0 0 Z " fill="#86C135" transform="translate(145,196)"/>
<path d="M0 0 C5.41342681 1.14514798 7.9342948 2.34012809 11 7 C7.41584854 7 6.58796261 6.21108216 3.8125 4.0625 C3.09707031 3.51722656 2.38164062 2.97195312 1.64453125 2.41015625 C1.10183594 1.94480469 0.55914062 1.47945312 0 1 C0 0.67 0 0.34 0 0 Z " fill="#86C233" transform="translate(185,41)"/>
<path d="M0 0 C0.99 0.495 0.99 0.495 2 1 C2.6328125 3.06640625 2.6328125 3.06640625 3.125 5.5625 C3.29257812 6.38878906 3.46015625 7.21507812 3.6328125 8.06640625 C3.75398438 8.70449219 3.87515625 9.34257812 4 10 C3.01 10.66 2.02 11.32 1 12 C0.67 8.04 0.34 4.08 0 0 Z " fill="#85C134" transform="translate(25,139)"/>
<path d="M0 0 C0.66 0.33 1.32 0.66 2 1 C2 2.98 2 4.96 2 7 C1.34 7 0.68 7 0 7 C0 7.66 0 8.32 0 9 C-1.32 9 -2.64 9 -4 9 C-4 8.01 -4 7.02 -4 6 C-2.68 6 -1.36 6 0 6 C0 4.02 0 2.04 0 0 Z " fill="#85C334" transform="translate(120,16)"/>
<path d="M0 0 C0 0.66 0 1.32 0 2 C-3.3 2.66 -6.6 3.32 -10 4 C-7 0 -7 0 -5 -0.8125 C-3 -1 -3 -1 0 0 Z " fill="#86C133" transform="translate(105,26)"/>
<path d="M0 0 C2 2 2 2 2.125 5.625 C2.08375 6.73875 2.0425 7.8525 2 9 C1.67 8.34 1.34 7.68 1 7 C0.34 7 -0.32 7 -1 7 C-1.33 5.02 -1.66 3.04 -2 1 C-1.34 0.67 -0.68 0.34 0 0 Z " fill="#87C331" transform="translate(200,107)"/>
<path d="M0 0 C0.33 0 0.66 0 1 0 C1.6875 2.8125 1.6875 2.8125 2 6 C0.5625 7.875 0.5625 7.875 -1 9 C-1.33 6.69 -1.66 4.38 -2 2 C-1.34 2 -0.68 2 0 2 C0 1.34 0 0.68 0 0 Z " fill="#83C131" transform="translate(135,14)"/>
<path d="M0 0 C2.31 0.33 4.62 0.66 7 1 C5.75 2.5625 5.75 2.5625 4 4 C1.8125 3.6875 1.8125 3.6875 0 3 C0 2.01 0 1.02 0 0 Z " fill="#83BC32" transform="translate(112,196)"/>
<path d="M0 0 C2.875 -0.125 2.875 -0.125 6 0 C6.66 0.66 7.32 1.32 8 2 C7.34 2.66 6.68 3.32 6 4 C3.875 3.625 3.875 3.625 2 3 C2 2.34 2 1.68 2 1 C1.34 0.67 0.68 0.34 0 0 Z " fill="#84C532" transform="translate(1,128)"/>
</svg>
